<svg id="ui-logo" xmlns="http://www.w3.org/2000/svg" viewBox="0 0 59.763 51.93">
  <title>logo</title>
  <path d="M37.96,14.8a5.622,5.622,0,0,1-.753,2.221,9.646,9.646,0,0,1-1.9,2.267q-.734.669-1.351,1.135c-.414.312-.854.626-1.324.94l-6.447-8.334q.566-.654,1.212-1.366t1.259-1.27a8.566,8.566,0,0,1,2.31-1.576,4.57,4.57,0,0,1,2.082-.42,3.754,3.754,0,0,1,1.855.62,6.658,6.658,0,0,1,1.622,1.536,7.579,7.579,0,0,1,1.168,2.086,4.941,4.941,0,0,1,.27,2.16Zm-7.618,8.343q-.291.441-.6.867-.329.45-.708.88a10.2,10.2,0,0,1-.785.8A11.664,11.664,0,0,1,26.681,26.9a3.756,3.756,0,0,1-1.64.595,3.054,3.054,0,0,1-1.737-.383,6.137,6.137,0,0,1-1.875-1.734l-3.662-4.735a7.106,7.106,0,0,1,.56-.707,8.873,8.873,0,0,1,1.234-1.122,5.92,5.92,0,0,1,.732-.471l3.487,4.509a2.446,2.446,0,0,0,1.328,1.058,1.458,1.458,0,0,0,1.187-.474,4.974,4.974,0,0,0,.376-.37,1.942,1.942,0,0,0,.17-.21L22.087,16.7A6.769,6.769,0,0,1,22.648,16a9.067,9.067,0,0,1,1.234-1.124,6.115,6.115,0,0,1,.731-.47L30.8,22.4Q30.619,22.729,30.342,23.146Zm-8.077,7.836q-.294.311-.533.53c-.17.154-.365.317-.588.49a7.315,7.315,0,0,1-.784.534L16.835,27.98a2.443,2.443,0,0,0-1.222-.987,1.3,1.3,0,0,0-1.172.429,2.627,2.627,0,0,0-.373.422,3.029,3.029,0,0,0-.214.334,6.527,6.527,0,0,1,1.138,1.174l3.662,4.736a7.747,7.747,0,0,1-.62.745c-.2.208-.374.384-.533.53s-.366.318-.588.491a7.478,7.478,0,0,1-.785.534L12.6,31.831a2.562,2.562,0,0,0-1.206-1,1.247,1.247,0,0,0-1.157.415,2.883,2.883,0,0,0-.327.352,1.044,1.044,0,0,0-.18.277l4.69,6.064a7.9,7.9,0,0,1-.62.745q-.257.275-.534.53c-.17.154-.365.318-.588.491a7.327,7.327,0,0,1-.785.534L5.74,32.278q.373-.672.96-1.527a11.5,11.5,0,0,1,1.71-1.873,10.1,10.1,0,0,1,1.292-1,3.934,3.934,0,0,1,1.44-.577,7.661,7.661,0,0,1,.624-1.2,5.889,5.889,0,0,1,1.055-1.237,8.715,8.715,0,0,1,1.3-.974,3.387,3.387,0,0,1,1.516-.511,3.191,3.191,0,0,1,1.688.372,5.533,5.533,0,0,1,1.815,1.637l3.75,4.848a8.029,8.029,0,0,1-.621.746ZM32.495.314,0,29.894l17.287,22.35H41.443l18.32-16.677L32.5.314Z" transform="translate(0 -0.314)" fill="#fff" fill-rule="evenodd"/>
  <path d="M32.389,11.734a1.85,1.85,0,0,0-1.522.57,4.637,4.637,0,0,0-.516.551l3.174,4.105a1.462,1.462,0,0,1,.17-.127,2.8,2.8,0,0,0,.3-.25,2.277,2.277,0,0,0,.852-1.648,3.436,3.436,0,0,0-.887-2.052,2.637,2.637,0,0,0-1.576-1.149" transform="translate(0 -0.314)" fill="#fff" fill-rule="evenodd"/>
</svg>
