<svg viewBox="0 0 162 72" xmlns="http://www.w3.org/2000/svg"><title>francisco-cortes-alvarez-logo</title><g fill="none" fill-rule="evenodd"><path d="M20.03 15.222h12.041v2.484H22.79V23.6h7.07v2.455h-7.07v8.435H20.03V15.222zM34.081 34.49V22.357c0-.424-.01-.857-.028-1.3h2.471l.086 2.167c.153-.231.355-.487.604-.766.249-.28.55-.534.905-.765a5.677 5.677 0 0 1 1.236-.592c.469-.164 1.01-.246 1.623-.246.288 0 .551.02.79.058.24.038.465.096.676.173l-.575 2.426c-.345-.134-.785-.202-1.322-.202a3.694 3.694 0 0 0-2.759 1.199 4.283 4.283 0 0 0-.819 1.314c-.2.501-.301 1.03-.301 1.59v7.076H34.08zm19.368-1.617a4.46 4.46 0 0 1-1.969 1.502 6.682 6.682 0 0 1-2.514.49 6.436 6.436 0 0 1-1.653-.216 4.31 4.31 0 0 1-1.494-.722 3.801 3.801 0 0 1-1.092-1.3c-.278-.53-.417-1.18-.417-1.95 0-1.444.503-2.6 1.51-3.466 1.005-.867 2.456-1.3 4.353-1.3.306 0 .632.01.977.029.345.02.67.038.977.058.306.019.575.038.804.057.23.02.393.039.489.058v-.49c0-1.002-.302-1.72-.905-2.153-.604-.433-1.423-.65-2.457-.65-1.016 0-1.82.14-2.414.42a9.524 9.524 0 0 0-1.494.851l-1.207-1.762a6.27 6.27 0 0 1 .833-.578c.326-.192.709-.37 1.15-.534.44-.164.938-.298 1.494-.404a10.371 10.371 0 0 1 1.925-.16c1.724 0 3.08.42 4.066 1.257.987.838 1.48 2.027 1.48 3.568v7.828c0 .462.01.857.03 1.184h-2.415l-.057-1.617zm-.029-4.738a4.748 4.748 0 0 0-.445-.072c-.22-.029-.475-.053-.762-.072-.287-.02-.594-.039-.92-.058-.325-.02-.641-.029-.948-.029-.728 0-1.317.087-1.767.26-.45.173-.805.39-1.063.65-.26.26-.436.549-.532.867a3.152 3.152 0 0 0-.144.91c0 .731.25 1.285.747 1.66.499.376 1.188.564 2.07.564.498 0 .972-.087 1.422-.26.45-.174.848-.405 1.193-.694.344-.288.622-.625.833-1.01.21-.386.316-.78.316-1.185v-1.53zm7.27 6.355V22.444c0-.443-.01-.905-.03-1.387h2.472l.086 2.022c.172-.23.383-.486.632-.765.25-.28.556-.535.92-.766.364-.23.79-.423 1.279-.577a5.484 5.484 0 0 1 1.652-.232c1.743 0 3.036.51 3.88 1.531.842 1.021 1.264 2.408 1.264 4.16v8.06h-2.587v-7.858c0-1.252-.268-2.171-.804-2.758-.537-.588-1.293-.881-2.27-.881-.748 0-1.37.154-1.868.462a3.56 3.56 0 0 0-1.193 1.198 5.396 5.396 0 0 0-.646 1.676 9.143 9.143 0 0 0-.202 1.92v6.24H60.69zm28.505-1.849a6.743 6.743 0 0 1-2.199 1.632c-.871.415-1.882.622-3.031.622-1.073 0-2.045-.179-2.917-.535a6.381 6.381 0 0 1-2.213-1.473 6.425 6.425 0 0 1-1.394-2.253c-.325-.876-.488-1.834-.488-2.874 0-.982.172-1.907.517-2.773a6.903 6.903 0 0 1 1.451-2.268 6.912 6.912 0 0 1 2.213-1.53c.853-.376 1.796-.564 2.83-.564 1.131 0 2.127.202 2.99.606.861.405 1.599.954 2.212 1.647l-1.695 1.646c-.403-.5-.891-.895-1.466-1.184-.575-.289-1.255-.433-2.04-.433-.69 0-1.308.13-1.854.39a3.985 3.985 0 0 0-1.38 1.069c-.373.452-.66.972-.861 1.56a5.622 5.622 0 0 0 0 3.64c.2.586.488 1.106.862 1.559.373.452.833.814 1.38 1.083.545.27 1.163.405 1.853.405.785 0 1.49-.15 2.112-.448a4.35 4.35 0 0 0 1.537-1.199l1.58 1.675zm3.763-16.898h2.902v2.918h-2.902v-2.918zm.172 5.315h2.587V34.49H93.13V21.057zm8.39 10.052a5.434 5.434 0 0 0 1.725 1.156c.67.289 1.446.433 2.327.433.862 0 1.58-.14 2.156-.419.574-.279.862-.717.862-1.314 0-.308-.063-.573-.187-.794-.125-.222-.335-.42-.632-.592-.297-.174-.69-.333-1.179-.477a36.081 36.081 0 0 0-1.824-.477 11.24 11.24 0 0 1-1.538-.462 5.109 5.109 0 0 1-1.365-.765 3.778 3.778 0 0 1-.977-1.156c-.249-.452-.373-.996-.373-1.632 0-.655.148-1.228.445-1.719a3.972 3.972 0 0 1 1.193-1.242 5.706 5.706 0 0 1 1.68-.765 7.2 7.2 0 0 1 1.94-.26c1.13 0 2.103.15 2.917.448a6.695 6.695 0 0 1 2.141 1.256l-1.408 1.791c-.402-.366-.905-.674-1.509-.924-.603-.25-1.307-.376-2.112-.376-.824 0-1.485.135-1.983.405s-.747.712-.747 1.328c0 .578.33 1.007.992 1.286.66.279 1.527.544 2.6.794.632.154 1.222.332 1.768.535a5.41 5.41 0 0 1 1.436.78c.412.317.738.707.977 1.17.24.462.36 1.02.36 1.675 0 .674-.154 1.266-.46 1.776-.307.51-.719.939-1.236 1.286a5.762 5.762 0 0 1-1.781.78 8.35 8.35 0 0 1-2.098.26c-2.53 0-4.426-.684-5.69-2.051l1.58-1.734zm25.575 1.531a6.743 6.743 0 0 1-2.198 1.632c-.872.415-1.883.622-3.032.622-1.073 0-2.045-.179-2.917-.535a6.381 6.381 0 0 1-2.213-1.473 6.425 6.425 0 0 1-1.393-2.253c-.326-.876-.489-1.834-.489-2.874 0-.982.172-1.907.517-2.773a6.903 6.903 0 0 1 1.451-2.268 6.911 6.911 0 0 1 2.213-1.53c.853-.376 1.796-.564 2.83-.564 1.131 0 2.127.202 2.99.606.862.405 1.6.954 2.212 1.647l-1.695 1.646c-.403-.5-.891-.895-1.466-1.184-.575-.289-1.255-.433-2.04-.433-.69 0-1.308.13-1.854.39a3.985 3.985 0 0 0-1.38 1.069c-.373.452-.66.972-.861 1.56a5.622 5.622 0 0 0 0 3.64c.2.586.488 1.106.862 1.559.373.452.833.814 1.38 1.083.545.27 1.163.405 1.853.405.785 0 1.49-.15 2.112-.448a4.35 4.35 0 0 0 1.537-1.199l1.58 1.675zm9.453 2.254c-1.035 0-1.983-.188-2.845-.564a6.762 6.762 0 0 1-2.227-1.545 7.316 7.316 0 0 1-1.466-2.268 7.146 7.146 0 0 1-.531-2.758c0-.982.177-1.902.531-2.759a7.316 7.316 0 0 1 1.466-2.267 6.761 6.761 0 0 1 2.227-1.546c.862-.375 1.81-.563 2.845-.563a6.923 6.923 0 0 1 5.058 2.109 7.146 7.146 0 0 1 2.012 5.026 7.146 7.146 0 0 1-2.012 5.026 6.923 6.923 0 0 1-5.058 2.109zm0-2.254c.69 0 1.312-.14 1.868-.418a4.423 4.423 0 0 0 1.408-1.098 4.79 4.79 0 0 0 .876-1.56 5.45 5.45 0 0 0 0-3.582 4.818 4.818 0 0 0-.89-1.574 4.543 4.543 0 0 0-1.408-1.112c-.546-.28-1.164-.419-1.854-.419-.69 0-1.312.14-1.868.419a4.423 4.423 0 0 0-1.408 1.097 4.79 4.79 0 0 0-.876 1.56 5.535 5.535 0 0 0-.302 1.806c0 .616.1 1.213.302 1.79a4.85 4.85 0 0 0 .89 1.56c.393.463.862.833 1.409 1.113.546.279 1.163.418 1.853.418zM30.304 54.11c-.142.233-.362.5-.66.8-.297.298-.66.581-1.086.848-.427.266-.918.49-1.475.673a5.902 5.902 0 0 1-1.843.273c-.958 0-1.83-.17-2.62-.507a6.018 6.018 0 0 1-2.038-1.415 6.478 6.478 0 0 1-1.329-2.145c-.317-.826-.475-1.727-.475-2.702 0-.95.158-1.84.475-2.672.317-.832.76-1.56 1.33-2.185a6.146 6.146 0 0 1 2.047-1.473c.795-.357 1.678-.536 2.649-.536.685 0 1.3.085 1.843.254.543.169 1.019.38 1.426.634.408.253.757.53 1.048.829.291.299.527.585.708.858l-1.32 1.131a7.85 7.85 0 0 0-.552-.692 3.806 3.806 0 0 0-.767-.654 4.44 4.44 0 0 0-1.028-.487 4.21 4.21 0 0 0-1.34-.195c-.71 0-1.348.136-1.91.41a4.323 4.323 0 0 0-1.436 1.111 4.911 4.911 0 0 0-.903 1.639 6.28 6.28 0 0 0-.31 1.99c0 .701.106 1.361.32 1.979.213.618.514 1.154.902 1.61.388.454.86.812 1.417 1.072.556.26 1.177.39 1.863.39.582 0 1.083-.075 1.504-.224a4.168 4.168 0 0 0 1.785-1.17c.188-.215.346-.394.475-.537l1.3 1.092zm5.778 2.555a4.76 4.76 0 0 1-1.92-.38 4.566 4.566 0 0 1-1.505-1.044 4.94 4.94 0 0 1-.99-1.531 4.825 4.825 0 0 1-.358-1.863c0-.663.12-1.284.359-1.863s.569-1.09.99-1.531c.42-.442.921-.79 1.503-1.044a4.76 4.76 0 0 1 1.921-.38 4.675 4.675 0 0 1 3.415 1.424 4.825 4.825 0 0 1 1.358 3.394 4.825 4.825 0 0 1-1.357 3.394 4.675 4.675 0 0 1-3.416 1.424zm0-1.522a2.77 2.77 0 0 0 1.262-.283c.375-.188.692-.435.95-.74.26-.306.457-.658.592-1.054a3.68 3.68 0 0 0 0-2.419 3.254 3.254 0 0 0-.601-1.063 3.068 3.068 0 0 0-.951-.75 2.71 2.71 0 0 0-1.252-.284 2.77 2.77 0 0 0-1.261.283 2.987 2.987 0 0 0-.95.741 3.235 3.235 0 0 0-.593 1.054 3.738 3.738 0 0 0 0 2.428c.136.39.337.741.602 1.053.265.313.582.563.95.751a2.71 2.71 0 0 0 1.252.283zm6.69 1.249v-8.193c0-.286-.006-.579-.02-.878h1.67l.058 1.463c.103-.156.24-.328.407-.517.169-.188.372-.36.612-.517.239-.156.517-.289.834-.4.317-.11.682-.165 1.096-.165.194 0 .372.013.534.039.162.026.314.065.456.117l-.388 1.638c-.233-.09-.53-.136-.893-.136a2.494 2.494 0 0 0-1.863.81 2.892 2.892 0 0 0-.756 1.96v4.779h-1.747zm7.777-7.608h-1.63v-1.463h1.63v-2.965h1.746v2.965h2.64v1.463h-2.64v4.467c0 .728.113 1.229.34 1.502.226.273.546.41.96.41.337 0 .615-.052.835-.156.22-.104.44-.26.66-.468l.795 1.072c-.375.364-.76.628-1.154.79-.395.163-.864.244-1.407.244-.958 0-1.66-.26-2.106-.78-.446-.52-.67-1.333-.67-2.438v-4.643zm14.84 6.281a5.479 5.479 0 0 1-.466.449 3.942 3.942 0 0 1-.805.527c-.33.169-.718.315-1.165.438a5.72 5.72 0 0 1-1.523.186 5.104 5.104 0 0 1-1.921-.351 4.25 4.25 0 0 1-1.494-.995 4.466 4.466 0 0 1-.96-1.541 5.581 5.581 0 0 1-.34-1.99 5.2 5.2 0 0 1 .33-1.863c.22-.578.53-1.079.931-1.502a4.469 4.469 0 0 1 1.426-1.004 4.376 4.376 0 0 1 1.815-.37c.776 0 1.442.149 1.998.448.557.299 1.013.696 1.369 1.19.355.494.617 1.06.785 1.697.169.637.253 1.3.253 1.99H58.5c.013.403.1.773.262 1.111.162.338.378.63.65.878.272.247.582.442.931.585.35.143.718.215 1.107.215.763 0 1.39-.13 1.882-.39.491-.26.847-.514 1.067-.761l.99 1.053zm-1.572-3.999c-.052-.702-.298-1.3-.737-1.794-.44-.494-1.061-.741-1.863-.741-.414 0-.786.071-1.116.214-.33.143-.611.332-.844.566a2.542 2.542 0 0 0-.544.81c-.129.305-.2.62-.213.945h5.317zm-2.329-7.86h1.902l-1.494 2.652H60.44l1.048-2.652zm6.593 10.903a3.67 3.67 0 0 0 1.165.78c.452.196.976.293 1.571.293.583 0 1.068-.094 1.456-.283.388-.188.582-.484.582-.887 0-.208-.042-.387-.126-.537a1.116 1.116 0 0 0-.427-.4 3.664 3.664 0 0 0-.796-.321c-.33-.098-.74-.205-1.232-.322a7.59 7.59 0 0 1-1.038-.312 3.45 3.45 0 0 1-.922-.517 2.551 2.551 0 0 1-.66-.78c-.168-.306-.252-.673-.252-1.102 0-.443.1-.83.3-1.161.201-.332.47-.611.806-.839.336-.227.715-.4 1.135-.517.42-.117.857-.175 1.31-.175.763 0 1.42.1 1.97.302a4.52 4.52 0 0 1 1.446.849l-.951 1.209a3.479 3.479 0 0 0-1.02-.624c-.407-.17-.882-.254-1.425-.254-.557 0-1.003.091-1.34.273-.336.182-.504.481-.504.898 0 .39.223.679.67.868.446.188 1.031.367 1.756.536.427.104.824.224 1.193.36.369.137.692.313.97.528.279.214.499.477.66.79.162.312.243.689.243 1.13 0 .456-.104.856-.31 1.2a2.73 2.73 0 0 1-.835.868c-.35.235-.75.41-1.203.527a5.638 5.638 0 0 1-1.417.176c-1.708 0-2.988-.462-3.842-1.385l1.067-1.17zm8.34-4.018h5.685v1.678h-5.685V50.09zm11.521-6.71h1.902l5.065 13.01h-2.077l-1.339-3.627h-5.317l-1.339 3.628h-1.96l5.065-13.01zm2.989 7.803l-2.096-5.716-2.115 5.716h4.21zM89.339 39.42h2.213l-2.057 2.926h-1.572l1.416-2.926zm6.923 3.96h1.747v13.01h-1.747v-13.01zm2.615 3.94h1.999l2.813 7.081 2.795-7.08h1.882l-3.862 9.07h-1.746l-3.881-9.07zm16.024 7.978c-.337.455-.78.794-1.33 1.015a4.512 4.512 0 0 1-1.697.331c-.376 0-.748-.049-1.116-.146a2.91 2.91 0 0 1-1.01-.488 2.567 2.567 0 0 1-.737-.878c-.187-.357-.281-.796-.281-1.316 0-.975.34-1.756 1.019-2.34.679-.586 1.659-.879 2.94-.879.207 0 .426.007.66.02l.66.039c.206.013.387.026.542.039.156.013.266.026.33.039v-.332c0-.676-.203-1.16-.61-1.453-.408-.292-.961-.439-1.66-.439-.686 0-1.229.094-1.63.283-.401.189-.737.38-1.01.575l-.814-1.19c.155-.13.343-.26.563-.39.22-.13.478-.25.776-.36.297-.11.634-.202 1.009-.273a7.003 7.003 0 0 1 1.3-.108c1.164 0 2.08.283 2.746.849.666.565 1 1.368 1 2.409v5.286c0 .312.006.579.019.8h-1.63l-.04-1.093zm-.02-3.199a3.206 3.206 0 0 0-.3-.048 8.243 8.243 0 0 0-.515-.05 79.457 79.457 0 0 0-.62-.038c-.22-.013-.434-.02-.641-.02-.492 0-.89.059-1.193.176a2.023 2.023 0 0 0-.718.439c-.175.175-.295.37-.36.585-.064.214-.096.42-.096.614 0 .494.168.868.504 1.122.336.253.802.38 1.397.38.337 0 .657-.058.96-.175a2.82 2.82 0 0 0 .806-.468c.233-.195.42-.423.563-.683.142-.26.213-.527.213-.8V52.1zm3.993 4.292v-8.193c0-.286-.007-.579-.02-.878h1.67l.058 1.463c.103-.156.239-.328.407-.517.168-.188.372-.36.611-.517.24-.156.518-.289.835-.4.317-.11.682-.165 1.096-.165.194 0 .372.013.534.039.162.026.314.065.456.117l-.388 1.638c-.233-.09-.53-.136-.893-.136a2.494 2.494 0 0 0-1.863.81 2.892 2.892 0 0 0-.757 1.96v4.779h-1.746zm14.743-1.327a5.479 5.479 0 0 1-.466.449 3.942 3.942 0 0 1-.805.527c-.33.169-.718.315-1.164.438a5.72 5.72 0 0 1-1.524.186 5.104 5.104 0 0 1-1.92-.351 4.25 4.25 0 0 1-1.495-.995 4.466 4.466 0 0 1-.96-1.541 5.581 5.581 0 0 1-.34-1.99 5.2 5.2 0 0 1 .33-1.863c.22-.578.53-1.079.931-1.502a4.469 4.469 0 0 1 1.426-1.004 4.376 4.376 0 0 1 1.815-.37c.776 0 1.442.149 1.999.448.556.299 1.012.696 1.368 1.19.355.494.617 1.06.786 1.697.168.637.252 1.3.252 1.99h-7.122c.013.403.1.773.262 1.111.162.338.378.63.65.878.272.247.582.442.932.585.349.143.718.215 1.106.215.763 0 1.39-.13 1.882-.39s.847-.514 1.067-.761l.99 1.053zm-1.572-3.999c-.052-.702-.297-1.3-.737-1.794s-1.061-.741-1.863-.741c-.414 0-.786.071-1.116.214-.33.143-.611.332-.844.566a2.542 2.542 0 0 0-.543.81c-.13.305-.201.62-.214.945h5.317zm3.488 3.94l5.162-6.202h-4.987V47.32h7.122v1.405l-5.26 6.203h5.318v1.463h-7.355v-1.385z" fill="#FFF" fill-rule="nonzero"/><path d="M1.657 1.198h158.686M1.17 70.122V1.41m159.66 68.713V1.205M1.657 70.333h158.686" opacity=".495" stroke-linecap="square" stroke="#FFF" stroke-width="2.107"/></g></svg>