<svg viewBox="0 0 360 470" xmlns="http://www.w3.org/2000/svg"><title>Group</title><g fill="#000" fill-rule="nonzero"><path d="M358.734 371.67c.03-.045.055-.093.084-.138a7.64 7.64 0 0 0 .295-.493c.016-.031.029-.063.045-.093.097-.187.188-.376.27-.571.008-.019.014-.039.021-.058a8.01 8.01 0 0 0 .226-.631c.007-.022.011-.045.017-.067.062-.21.118-.423.161-.642.012-.06.017-.122.028-.183.031-.18.063-.36.081-.544.025-.248.038-.498.038-.749V7.5c0-4.143-3.357-7.5-7.5-7.5H7.5A7.5 7.5 0 0 0 0 7.5v455c0 4.143 3.357 7.5 7.5 7.5h250c.251 0 .501-.013.749-.038.189-.019.374-.051.558-.083.056-.01.113-.015.169-.026.218-.043.432-.099.643-.162.022-.006.044-.01.066-.017.213-.065.422-.142.626-.225l.063-.023c.195-.081.384-.173.57-.27.031-.016.063-.029.094-.045.171-.091.335-.193.498-.298.044-.028.09-.052.133-.081.149-.1.29-.209.431-.319.053-.041.108-.078.16-.12.146-.12.284-.25.421-.381.04-.038.083-.071.122-.11l95-95c.039-.039.072-.082.11-.122.131-.137.261-.274.381-.421.044-.051.081-.107.123-.16.109-.14.218-.281.317-.429zM15 15h330v345h-87.5a7.499 7.499 0 0 0-7.5 7.5V455H15V15zm319.394 360L265 444.394V375h69.394z"/><path d="M254.1 243.447c3.524 11.46-3.531 25.465-17.198 32.769-15.058 8.04-32.392 4.877-38.707-7.067-6.321-11.943.766-28.143 15.822-36.181 7.686-4.104 15.96-5.274 23.059-3.864l-.341-125.303-100.474 17.631-.015 143.447c3.46 11.442-3.595 25.397-17.228 32.673-15.059 8.038-32.388 4.884-38.708-7.06-6.317-11.949.766-28.15 15.825-36.19 7.695-4.11 15.977-5.28 23.087-3.858l.022-143.714L254.538 83l-.437 160.447z"/></g></svg>