<svg viewBox="0 0 37 18" xmlns="http://www.w3.org/2000/svg"><title>soundcloud</title><path d="M32.229 7.803c-.653 0-1.277.141-1.845.396C30.004 3.604 26.399 0 22 0c-1.076 0-2.12.226-3.047.61-.36.148-.454.301-.454.599v16.18c0 .312.225.572.51.603L32.231 18C34.865 18 37 15.717 37 12.902c0-2.816-2.137-5.1-4.771-5.1zM14.453 18h1.156l.579-9.009L15.608 0h-1.156l-.578 8.991.578 9.009zm-3.469 0H9.828l-.578-6.54.578-6.317h1.156l.579 6.428L10.983 18zm-5.78 0h1.155l.579-5.143-.579-5.143H5.203l-.578 5.143L5.203 18zM.577 15.429h1.156l.579-2.572-.579-2.571H.578L0 12.857l.578 2.572z" fill="#000" fill-rule="nonzero"/></svg>