<svg viewBox="0 0 29 25" xmlns="http://www.w3.org/2000/svg"><path d="M28.883 5.784c-.13 2.81-2.094 6.665-5.892 11.552-3.928 5.102-7.252 7.658-9.972 7.658-1.682 0-3.11-1.552-4.272-4.661-.779-2.85-1.552-5.7-2.33-8.55-.864-3.11-1.79-4.661-2.783-4.661-.214 0-.97.457-2.268 1.36l-1.36-1.75A353.89 353.89 0 004.22 2.975C6.123 1.332 7.551.468 8.505.378c2.246-.214 3.634 1.32 4.153 4.61.559 3.55.948 5.757 1.168 6.62.65 2.946 1.36 4.42 2.139 4.42.604 0 1.512-.955 2.726-2.868 1.207-1.907 1.856-3.363 1.947-4.362.175-1.648-.474-2.477-1.947-2.477-.694 0-1.405.158-2.14.474 1.423-4.65 4.132-6.908 8.139-6.778 2.962.079 4.362 2.003 4.193 5.767z"/></svg>